<?xml version="1.0" encoding="UTF-8" standalone="no"?>
<svg width="616px" height="192px" viewBox="0 0 616 192" version="1.1" xmlns="http://www.w3.org/2000/svg" xmlns:xlink="http://www.w3.org/1999/xlink" xmlns:sketch="http://www.bohemiancoding.com/sketch/ns">
    <!-- Generator: Sketch 3.3.2 (12043) - http://www.bohemiancoding.com/sketch -->
    <title>logo</title>
    <desc>Created with Sketch.</desc>
    <defs>
        <radialGradient cx="127.103398%" cy="191.962502%" fx="127.103398%" fy="191.962502%" r="395.972309%" id="radialGradient-1">
            <stop stop-color="#E00100" offset="0%"></stop>
            <stop stop-color="#E00100" offset="50%"></stop>
            <stop stop-color="#520002" offset="100%"></stop>
        </radialGradient>
        <radialGradient cx="12.3060092%" cy="195.837433%" fx="12.3060092%" fy="195.837433%" r="461.964462%" id="radialGradient-2">
            <stop stop-color="#E00100" offset="0%"></stop>
            <stop stop-color="#E00100" offset="50%"></stop>
            <stop stop-color="#520002" offset="100%"></stop>
        </radialGradient>
        <radialGradient cx="452.522124%" cy="108.567372%" fx="452.522124%" fy="108.567372%" r="455.807098%" id="radialGradient-3">
            <stop stop-color="#E00100" offset="0%"></stop>
            <stop stop-color="#E00100" offset="50%"></stop>
            <stop stop-color="#520002" offset="100%"></stop>
        </radialGradient>
        <radialGradient cx="273.910169%" cy="147.077662%" fx="273.910169%" fy="147.077662%" r="337.094977%" id="radialGradient-4">
            <stop stop-color="#E00100" offset="0%"></stop>
            <stop stop-color="#E00100" offset="50%"></stop>
            <stop stop-color="#520002" offset="100%"></stop>
        </radialGradient>
        <radialGradient cx="286.120929%" cy="178.282949%" fx="286.120929%" fy="178.282949%" r="534.916196%" id="radialGradient-5">
            <stop stop-color="#E00100" offset="0%"></stop>
            <stop stop-color="#E00100" offset="50%"></stop>
            <stop stop-color="#520002" offset="100%"></stop>
        </radialGradient>
        <radialGradient cx="-311.993189%" cy="100.068828%" fx="-311.993189%" fy="100.068828%" r="414.401746%" id="radialGradient-6">
            <stop stop-color="#E00100" offset="0%"></stop>
            <stop stop-color="#E00100" offset="50%"></stop>
            <stop stop-color="#520002" offset="100%"></stop>
        </radialGradient>
        <radialGradient cx="-153.11809%" cy="139.916729%" fx="-153.11809%" fy="139.916729%" r="315.727671%" id="radialGradient-7">
            <stop stop-color="#E00100" offset="0%"></stop>
            <stop stop-color="#E00100" offset="50%"></stop>
            <stop stop-color="#520002" offset="100%"></stop>
        </radialGradient>
        <radialGradient cx="-98.5599875%" cy="180.682409%" fx="-98.5599875%" fy="180.682409%" r="458.143508%" id="radialGradient-8">
            <stop stop-color="#E00100" offset="0%"></stop>
            <stop stop-color="#E00100" offset="50%"></stop>
            <stop stop-color="#520002" offset="100%"></stop>
        </radialGradient>
    </defs>
    <g id="Page-1" stroke="none" stroke-width="1" fill="none" fill-rule="evenodd" sketch:type="MSPage">
        <g id="logo" sketch:type="MSLayerGroup" transform="translate(2.000000, 2.000000)">
            <g id="g6511" transform="translate(0.785714, 0.030663)" sketch:type="MSShapeGroup">
                <path d="M280.77679,1.08987 L257.72129,2.40237 L263.52679,62.15237 C264.71925,74.42511 241.36168,77.64943 239.58929,66.21487 L230.24554,5.93362 L206.87054,10.18362 L218.49554,75.71487 C224.67711,110.56097 286.66886,102.47408 284.40179,63.46487 L280.77679,1.08987 L280.77679,1.08987 Z" id="path3263" stroke="#EDD144" stroke-width="4" fill="url(#radialGradient-1)"></path>
                <path d="M307.27679,0.21487 L307.27679,44.55862 L297.99554,44.55862 L297.30804,70.37112 L305.90179,70.37112 L305.90179,95.46487 L326.52679,95.46487 L327.55804,70.71487 L337.87054,95.46487 L357.49554,95.46487 L347.18304,67.27737 C373.60837,51.66366 366.12865,7.36301 341.68304,0.21487 L307.27679,0.21487 L307.27679,0.21487 Z M326.71429,24.46487 L336.49554,24.46487 C347.74446,26.72467 347.18357,44.59974 336.49554,48.27737 L326.46429,48.05862 L326.71429,24.46487 L326.71429,24.46487 Z" id="path3265" stroke="#EDD144" stroke-width="4" fill="url(#radialGradient-2)"></path>
                <g id="g4481" transform="translate(0.000000, 76.000000)" fill="#977821">
                    <path d="M38.99554,0.21487 L0.464286,28.43362 L7.464286,28.43362 L45.99554,0.21487 L38.99554,0.21487 L38.99554,0.21487 Z" id="path4483"></path>
                    <path d="M0.464286,28.43362 L23.183036,62.46487 L30.183036,62.46487 L7.464286,28.43362 L0.464286,28.43362 L0.464286,28.43362 Z" id="path4485"></path>
                    <path d="M23.183036,62.46487 L15.245536,68.30862 L22.245536,68.30862 L30.183036,62.46487 L23.183036,62.46487 L23.183036,62.46487 Z" id="path4487"></path>
                    <path d="M15.245536,68.30862 L29.370536,88.96487 L36.370536,88.96487 L22.245536,68.30862 L15.245536,68.30862 L15.245536,68.30862 Z" id="path4489"></path>
                    <path d="M29.370536,88.96487 L35.558036,85.18362 L42.55804,85.18362 L36.370536,88.96487 L29.370536,88.96487 L29.370536,88.96487 Z" id="path4491"></path>
                    <path d="M35.558036,85.18362 L47.93304,102.02737 L54.93304,102.02737 L42.55804,85.18362 L35.558036,85.18362 L35.558036,85.18362 Z" id="path4493"></path>
                    <path d="M47.93304,102.02737 L65.80804,90.33987 L72.80804,90.33987 L54.93304,102.02737 L47.93304,102.02737 L47.93304,102.02737 Z" id="path4495"></path>
                    <path d="M65.80804,90.33987 L53.77679,72.43362 L60.77679,72.43362 L72.80804,90.33987 L65.80804,90.33987 L65.80804,90.33987 Z" id="path4497"></path>
                    <path d="M53.77679,72.43362 L67.87054,63.49612 L74.87054,63.49612 L60.77679,72.43362 L53.77679,72.43362 L53.77679,72.43362 Z" id="path4499"></path>
                    <path d="M67.87054,63.49612 L53.77679,41.83987 L60.77679,41.83987 L74.87054,63.49612 L67.87054,63.49612 L67.87054,63.49612 Z" id="path4501"></path>
                    <path d="M53.77679,41.83987 L42.43304,49.74612 L49.43304,49.74612 L60.77679,41.83987 L53.77679,41.83987 L53.77679,41.83987 Z" id="path4503"></path>
                    <path d="M42.43304,49.74612 L33.495536,37.37112 L40.49554,37.37112 L49.43304,49.74612 L42.43304,49.74612 L42.43304,49.74612 Z" id="path4505"></path>
                    <path d="M33.495536,37.37112 L52.40179,23.58987 L59.40179,23.58987 L40.49554,37.37112 L33.495536,37.37112 L33.495536,37.37112 Z" id="path4507"></path>
                    <path d="M52.40179,23.58987 L38.99554,0.21487 L45.99554,0.21487 L59.40179,23.58987 L52.40179,23.58987 L52.40179,23.58987 Z" id="path4509"></path>
                </g>
                <path d="M38.99554,76.21487 L0.464286,104.43362 L23.183036,138.46487 L15.245536,144.30862 L29.370536,164.96487 L35.558036,161.18362 L47.93304,178.02737 L65.80804,166.33987 L53.77679,148.43362 L67.87054,139.49612 L53.77679,117.83987 L42.43304,125.74612 L33.495536,113.37112 L52.40179,99.58987 L38.99554,76.21487 L38.99554,76.21487 Z" id="path3249" stroke="#EDD144" stroke-width="4" fill="url(#radialGradient-3)"></path>
                <g id="g4681" transform="translate(55.000000, 35.000000)" fill="#977821">
                    <path d="M66.52679,0.27737 L46.93304,9.21487 L51.93304,9.21487 L71.52679,0.27737 L66.52679,0.27737 L66.52679,0.27737 Z" id="path4683"></path>
                    <path d="M46.93304,9.21487 L69.27679,63.90237 L74.27679,63.90237 L51.93304,9.21487 L46.93304,9.21487 L46.93304,9.21487 Z" id="path4685"></path>
                    <path d="M69.27679,63.90237 C70.22757,73.0073 63.5968,79.50501 56.25837,79.50501 L61.25837,79.50501 C68.5968,79.50501 75.22757,73.0073 74.27679,63.90237 L69.27679,63.90237 L69.27679,63.90237 Z" id="path4687"></path>
                    <path d="M56.25837,79.50501 C53.71233,79.50501 51.08112,78.72287 48.65179,76.99612 L53.65179,76.99612 C56.08112,78.72287 58.71233,79.50501 61.25837,79.50501 L56.25837,79.50501 L56.25837,79.50501 Z" id="path4689"></path>
                    <path d="M48.65179,76.99612 L21.15179,22.99612 L26.15179,22.99612 L53.65179,76.99612 L48.65179,76.99612 L48.65179,76.99612 Z" id="path4691"></path>
                    <path d="M21.15179,22.99612 L0.83929,35.37112 L5.83929,35.37112 L26.15179,22.99612 L21.15179,22.99612 L21.15179,22.99612 Z" id="path4693"></path>
                    <path d="M0.83929,35.37112 L30.77679,91.08987 L35.77679,91.08987 L5.83929,35.37112 L0.83929,35.37112 L0.83929,35.37112 Z" id="path4695"></path>
                    <path d="M30.77679,91.08987 C41.28261,98.36398 51.31264,101.62143 60.05745,101.62143 L65.05745,101.62143 C56.31264,101.62143 46.28261,98.36398 35.77679,91.08987 L30.77679,91.08987 L30.77679,91.08987 Z" id="path4697"></path>
                    <path d="M60.05745,101.62143 C81.09047,101.62143 94.68852,82.77716 89.58929,55.65237 L94.58929,55.65237 C102.7329,77.85932 87.49557,98.81124 65.05745,101.62143 L60.05745,101.62143 L60.05745,101.62143 Z" id="path4699"></path>
                    <path d="M89.58929,55.65237 L66.52679,0.27737 L71.52679,0.27737 L94.58929,55.65237 L89.58929,55.65237 L89.58929,55.65237 Z" id="path4701"></path>
                </g>
                <path d="M121.52679,35.27737 L101.93304,44.21487 L124.27679,98.90237 C129.17456,110.88992 109.69693,123.86659 103.65179,111.99612 L76.15179,57.99612 L55.83929,70.37112 L85.77679,126.08987 C100.94704,154.32428 153.61945,128.92894 146.28748,95.97782 C145.89675,94.2218 145.3356,92.44433 144.58929,90.65237 L121.52679,35.27737 L121.52679,35.27737 Z" id="path3253" stroke="#EDD144" stroke-width="4" fill="url(#radialGradient-4)"></path>
                <g id="g4883" transform="translate(141.000000, 12.000000)" fill="#977821">
                    <path d="M48.99554,0.58987 L0.15179,16.74612 L3.15179,16.74612 L51.99554,0.58987 L48.99554,0.58987 L48.99554,0.58987 Z" id="path4885"></path>
                    <path d="M0.15179,16.74612 L8.05804,43.24612 L11.05804,43.24612 L3.15179,16.74612 L0.15179,16.74612 L0.15179,16.74612 Z" id="path4887"></path>
                    <path d="M8.05804,43.24612 L20.08929,39.46487 L23.08929,39.46487 L11.05804,43.24612 L8.05804,43.24612 L8.05804,43.24612 Z" id="path4889"></path>
                    <path d="M20.08929,39.46487 L37.96429,98.27737 L40.96429,98.27737 L23.08929,39.46487 L20.08929,39.46487 L20.08929,39.46487 Z" id="path4891"></path>
                    <path d="M37.96429,98.27737 L57.58929,92.08987 L60.58929,92.08987 L40.96429,98.27737 L37.96429,98.27737 L37.96429,98.27737 Z" id="path4893"></path>
                    <path d="M57.58929,92.08987 L41.77679,31.87112 L44.77679,31.87112 L60.58929,92.08987 L57.58929,92.08987 L57.58929,92.08987 Z" id="path4895"></path>
                    <path d="M41.77679,31.87112 L55.18304,28.08987 L58.18304,28.08987 L44.77679,31.87112 L41.77679,31.87112 L41.77679,31.87112 Z" id="path4897"></path>
                    <path d="M55.18304,28.08987 L48.99554,0.58987 L51.99554,0.58987 L58.18304,28.08987 L55.18304,28.08987 L55.18304,28.08987 Z" id="path4899"></path>
                </g>
                <path d="M189.99554,12.58987 L141.15179,28.74612 L149.05804,55.24612 L161.08929,51.46487 L178.96429,110.27737 L198.58929,104.08987 L182.77679,43.87112 L196.18304,40.08987 L189.99554,12.58987 L189.99554,12.58987 Z" id="path3261" stroke="#EDD144" stroke-width="4" fill="url(#radialGradient-5)"></path>
                <g id="g5455" transform="translate(529.000000, 90.000000)" fill="#977821">
                    <path d="M79.55804,0.21487 C78.69799,0.29577 77.63747,0.78111 76.43304,1.77737 L69.43304,1.77737 C70.63747,0.78111 71.69799,0.29577 72.55804,0.21487 L79.55804,0.21487 L79.55804,0.21487 Z" id="path5457"></path>
                    <path d="M76.43304,1.77737 L7.80804,61.62112 L0.80804,61.62112 L69.43304,1.77737 L76.43304,1.77737 L76.43304,1.77737 Z" id="path5459"></path>
                    <path d="M7.80804,61.62112 L28.05804,73.55862 L21.05804,73.55862 L0.80804,61.62112 L7.80804,61.62112 L7.80804,61.62112 Z" id="path5461"></path>
                    <path d="M28.05804,73.55862 L37.74554,64.83987 L30.74554,64.83987 L21.05804,73.55862 L28.05804,73.55862 L28.05804,73.55862 Z" id="path5463"></path>
                    <path d="M37.74554,64.83987 L36.55804,78.58987 L29.55804,78.58987 L30.74554,64.83987 L37.74554,64.83987 L37.74554,64.83987 Z" id="path5465"></path>
                    <path d="M36.55804,78.58987 L37.65179,79.18362 L30.65179,79.18362 L29.55804,78.58987 L36.55804,78.58987 L36.55804,78.58987 Z" id="path5467"></path>
                    <path d="M37.65179,79.18362 L49.05804,72.52737 L42.05804,72.52737 L30.65179,79.18362 L37.65179,79.18362 L37.65179,79.18362 Z" id="path5469"></path>
                    <path d="M49.05804,72.52737 L45.49554,83.83987 L38.49554,83.83987 L42.05804,72.52737 L49.05804,72.52737 L49.05804,72.52737 Z" id="path5471"></path>
                    <path d="M45.49554,83.83987 L67.30804,96.68362 L60.30804,96.68362 L38.49554,83.83987 L45.49554,83.83987 L45.49554,83.83987 Z" id="path5473"></path>
                    <path d="M67.30804,96.68362 L81.74554,4.74612 L74.74554,4.74612 L60.30804,96.68362 L67.30804,96.68362 L67.30804,96.68362 Z" id="path5475"></path>
                    <path d="M81.74554,4.74612 C82.36442,1.98511 81.53193,0.20289 79.80794,0.20289 L72.80794,0.20289 C74.53193,0.20289 75.36442,1.98511 74.74554,4.74612 L81.74554,4.74612 L81.74554,4.74612 Z" id="path5477"></path>
                    <path id="path5479" d="M79.80794,0.20289 C79.7266,0.20289 79.64328,0.20685 79.55804,0.21487 L72.55804,0.21487 C72.64328,0.20685 72.7266,0.20289 72.80794,0.20289 L79.80794,0.20289 L79.80794,0.20289 Z"></path>
                    <path d="M55.87054,46.21487 L51.90179,65.49612 L44.90179,65.49612 L48.87054,46.21487 L55.87054,46.21487 L55.87054,46.21487 Z" id="path5481"></path>
                    <path d="M51.90179,65.49612 L40.77679,58.21487 L33.77679,58.21487 L44.90179,65.49612 L51.90179,65.49612 L51.90179,65.49612 Z" id="path5483"></path>
                    <path d="M40.77679,58.21487 L55.87054,46.21487 L48.87054,46.21487 L33.77679,58.21487 L40.77679,58.21487 L40.77679,58.21487 Z" id="path5485"></path>
                </g>
                <path d="M608.55804,90.21487 C607.69799,90.29577 606.63747,90.78111 605.43304,91.77737 L536.80804,151.62112 L557.05804,163.55862 L566.74554,154.83987 L565.55804,168.58987 L566.65179,169.18362 L578.05804,162.52737 L574.49554,173.83987 L596.30804,186.68362 L610.74554,94.74612 C611.39362,91.85485 610.45015,90.0369 608.55804,90.21487 L608.55804,90.21487 Z M584.87054,136.21487 L580.90179,155.49612 L569.77679,148.21487 L584.87054,136.21487 L584.87054,136.21487 Z" id="path3247" stroke="#EDD144" stroke-width="4" fill="url(#radialGradient-6)"></path>
                <g id="g5785" transform="translate(449.000000, 34.000000)" fill="#977821">
                    <path id="path5787" d="M48.77679,0.37112 C48.74092,0.3697 48.70488,0.36901 48.66866,0.36901 L43.66866,0.36901 C43.70488,0.36901 43.74092,0.3697 43.77679,0.37112 L48.77679,0.37112 L48.77679,0.37112 Z"></path>
                    <path d="M48.66866,0.36901 C47.44385,0.36901 46.02265,1.16237 44.68304,1.62112 L39.68304,1.62112 C41.02265,1.16237 42.44385,0.36901 43.66866,0.36901 L48.66866,0.36901 L48.66866,0.36901 Z" id="path5789"></path>
                    <path d="M44.68304,1.62112 L5.49554,79.71487 L0.49554,79.71487 L39.68304,1.62112 L44.68304,1.62112 L44.68304,1.62112 Z" id="path5791"></path>
                    <path d="M5.49554,79.71487 L25.77679,90.37112 L20.77679,90.37112 L0.49554,79.71487 L5.49554,79.71487 L5.49554,79.71487 Z" id="path5793"></path>
                    <path d="M25.77679,90.37112 L38.15179,65.93362 L33.15179,65.93362 L20.77679,90.37112 L25.77679,90.37112 L25.77679,90.37112 Z" id="path5795"></path>
                    <path d="M38.15179,65.93362 L38.15179,92.08987 L33.15179,92.08987 L33.15179,65.93362 L38.15179,65.93362 L38.15179,65.93362 Z" id="path5797"></path>
                    <path d="M38.15179,92.08987 C38.69307,94.7105 39.76693,96.08406 41.43002,96.08406 L36.43002,96.08406 C34.76693,96.08406 33.69307,94.7105 33.15179,92.08987 L38.15179,92.08987 L38.15179,92.08987 Z" id="path5799"></path>
                    <path d="M41.43002,96.08406 C42.33632,96.08406 43.4176,95.67615 44.68304,94.83987 L39.68304,94.83987 C38.4176,95.67615 37.33632,96.08406 36.43002,96.08406 L41.43002,96.08406 L41.43002,96.08406 Z" id="path5801"></path>
                    <path d="M44.68304,94.83987 L62.93304,77.30862 L57.93304,77.30862 L39.68304,94.83987 L44.68304,94.83987 L44.68304,94.83987 Z" id="path5803"></path>
                    <path d="M62.93304,77.30862 L54.33929,98.62112 L49.33929,98.62112 L57.93304,77.30862 L62.93304,77.30862 L62.93304,77.30862 Z" id="path5805"></path>
                    <path d="M54.33929,98.62112 L76.33929,109.27737 L71.33929,109.27737 L49.33929,98.62112 L54.33929,98.62112 L54.33929,98.62112 Z" id="path5807"></path>
                    <path d="M76.33929,109.27737 L102.80804,25.02737 L97.80804,25.02737 L71.33929,109.27737 L76.33929,109.27737 L76.33929,109.27737 Z" id="path5809"></path>
                    <path d="M102.80804,25.02737 C102.72528,22.01504 101.18923,21.42882 99.30041,21.42882 L94.30041,21.42882 C96.18923,21.42882 97.72528,22.01504 97.80804,25.02737 L102.80804,25.02737 L102.80804,25.02737 Z" id="path5811"></path>
                    <path id="path5813" d="M99.30041,21.42882 C98.55415,21.42882 97.75282,21.52033 96.96429,21.58987 L91.96429,21.58987 C92.75282,21.52033 93.55415,21.42882 94.30041,21.42882 L99.30041,21.42882 L99.30041,21.42882 Z"></path>
                    <path d="M96.96429,21.58987 L57.43304,53.55862 L52.43304,53.55862 L91.96429,21.58987 L96.96429,21.58987 L96.96429,21.58987 Z" id="path5815"></path>
                    <path d="M57.43304,53.55862 L51.55804,4.37112 L46.55804,4.37112 L52.43304,53.55862 L57.43304,53.55862 L57.43304,53.55862 Z" id="path5817"></path>
                    <path d="M51.55804,4.37112 C51.05354,1.3445 50.02561,0.42044 48.77679,0.37112 L43.77679,0.37112 C45.02561,0.42044 46.05354,1.3445 46.55804,4.37112 L51.55804,4.37112 L51.55804,4.37112 Z" id="path5819"></path>
                </g>
                <path d="M497.77679,34.37112 C496.52797,34.3218 495.06226,35.14881 493.68304,35.62112 L454.49554,113.71487 L474.77679,124.37112 L487.15179,99.93362 L487.15179,126.08987 C487.98804,130.13862 490.09549,131.21075 493.68304,128.83987 L511.93304,111.30862 L503.33929,132.62112 L525.33929,143.27737 L551.80804,59.02737 C551.69258,54.82488 548.74861,55.34432 545.96429,55.58987 L506.43304,87.55862 L500.55804,38.37112 C500.05354,35.3445 499.02561,34.42044 497.77679,34.37112 L497.77679,34.37112 Z" id="path3255" stroke="#EDD144" stroke-width="4" fill="url(#radialGradient-7)"></path>
                <g id="g6199" transform="translate(368.000000, 15.000000)" fill="#977821">
                    <path d="M58.24554,0.49612 C57.29428,0.52453 56.10672,1.11539 54.77679,2.02737 L51.77679,2.02737 C53.10672,1.11539 54.29428,0.52453 55.24554,0.49612 L58.24554,0.49612 L58.24554,0.49612 Z" id="path6201"></path>
                    <path d="M54.77679,2.02737 L3.58929,78.74612 L0.58929,78.74612 L51.77679,2.02737 L54.77679,2.02737 L54.77679,2.02737 Z" id="path6203"></path>
                    <path d="M3.58929,78.74612 L26.40179,84.37112 L23.40179,84.37112 L0.58929,78.74612 L3.58929,78.74612 L3.58929,78.74612 Z" id="path6205"></path>
                    <path d="M26.40179,84.37112 L33.18304,73.24612 L30.18304,73.24612 L23.40179,84.37112 L26.40179,84.37112 L26.40179,84.37112 Z" id="path6207"></path>
                    <path d="M33.18304,73.24612 L35.99554,86.74612 L32.99554,86.74612 L30.18304,73.24612 L33.18304,73.24612 L33.18304,73.24612 Z" id="path6209"></path>
                    <path id="path6211" d="M35.99554,86.74612 L37.21429,87.02737 L34.21429,87.02737 L32.99554,86.74612 L35.99554,86.74612 L35.99554,86.74612 Z"></path>
                    <path d="M37.21429,87.02737 L46.24554,77.37112 L43.24554,77.37112 L34.21429,87.02737 L37.21429,87.02737 L37.21429,87.02737 Z" id="path6213"></path>
                    <path d="M46.24554,77.37112 L46.05804,89.21487 L43.05804,89.21487 L43.24554,77.37112 L46.24554,77.37112 L46.24554,77.37112 Z" id="path6215"></path>
                    <path d="M46.05804,89.21487 L70.65179,95.27737 L67.65179,95.27737 L43.05804,89.21487 L46.05804,89.21487 L46.05804,89.21487 Z" id="path6217"></path>
                    <path d="M70.65179,95.27737 L60.46429,3.77737 L57.46429,3.77737 L67.65179,95.27737 L70.65179,95.27737 L70.65179,95.27737 Z" id="path6219"></path>
                    <path d="M60.46429,3.77737 C60.29659,1.40604 59.50033,0.49506 58.31625,0.49506 L55.31625,0.49506 C56.50033,0.49506 57.29659,1.40604 57.46429,3.77737 L60.46429,3.77737 L60.46429,3.77737 Z" id="path6221"></path>
                    <path id="path6223" d="M58.31625,0.49506 C58.29283,0.49506 58.26926,0.49541 58.24554,0.49612 L55.24554,0.49612 C55.26926,0.49541 55.29283,0.49506 55.31625,0.49506 L58.31625,0.49506 L58.31625,0.49506 Z"></path>
                    <path d="M45.21429,50.21487 L46.93304,69.80862 L43.93304,69.80862 L42.21429,50.21487 L45.21429,50.21487 L45.21429,50.21487 Z" id="path6225"></path>
                    <path d="M46.93304,69.80862 L34.21429,66.02737 L31.21429,66.02737 L43.93304,69.80862 L46.93304,69.80862 L46.93304,69.80862 Z" id="path6227"></path>
                    <path d="M34.21429,66.02737 L45.21429,50.21487 L42.21429,50.21487 L31.21429,66.02737 L34.21429,66.02737 L34.21429,66.02737 Z" id="path6229"></path>
                </g>
                <path d="M426.24554,15.49612 C425.29428,15.52453 424.10672,16.11539 422.77679,17.02737 L371.58929,93.74612 L394.40179,99.37112 L401.18304,88.24612 L403.99554,101.74612 L405.21429,102.02737 L414.24554,92.37112 L414.05804,104.21487 L438.65179,110.27737 L428.46429,18.77737 C428.29327,16.35914 427.46859,15.45959 426.24554,15.49612 L426.24554,15.49612 Z M413.21429,65.21487 L414.93304,84.80862 L402.21429,81.02737 L413.21429,65.21487 L413.21429,65.21487 Z" id="path3259" stroke="#EDD144" stroke-width="4" fill="url(#radialGradient-8)"></path>
            </g>
        </g>
    </g>
</svg>